<svg width="256" height="256" viewBox="0 0 256 256" fill="none" xmlns="http://www.w3.org/2000/svg">
  <defs>
    <linearGradient id="grad" x1="40" y1="40" x2="216" y2="216">
      <stop offset="0%" stop-color="#00E5FF"/>
      <stop offset="100%" stop-color="#3B82F6"/>
    </linearGradient>
  </defs>

  <!-- Background -->
  <rect width="256" height="256" rx="56" fill="#0F172A"/>

  <!-- Hexagon -->
  <path
    d="M128 36L200 78V178L128 220L56 178V78L128 36Z"
    stroke="url(#grad)"
    stroke-width="8"
    fill="none"
  />

  <!-- Hidden S -->
  <path
    d="M165 82
       C145 65 105 65 90 90
       C75 115 100 130 130 138
       C160 146 175 160 165 180
       C155 200 120 205 95 190"
    stroke="url(#grad)"
    stroke-width="18"
    stroke-linecap="round"
    fill="none"
  />

  <!-- Microservice Nodes -->
  <circle cx="128" cy="36" r="8" fill="#00E5FF"/>
  <circle cx="200" cy="78" r="8" fill="#00E5FF"/>
  <circle cx="200" cy="178" r="8" fill="#00E5FF"/>
  <circle cx="128" cy="220" r="8" fill="#00E5FF"/>
  <circle cx="56" cy="178" r="8" fill="#00E5FF"/>
  <circle cx="56" cy="78" r="8" fill="#00E5FF"/>

  <!-- Internal Connections -->
  <line x1="95" y1="120" x2="160" y2="120" stroke="#00E5FF" stroke-width="4" opacity="0.7"/>
  <circle cx="128" cy="120" r="6" fill="#00E5FF"/>
</svg>